<mxfile host="app.diagrams.net" agent="Mozilla/5.0 (Windows NT 10.0; Win64; x64) AppleWebKit/537.36 (KHTML, like Gecko) Chrome/133.0.0.0 Safari/537.36" version="26.0.14">
  <diagram name="Trang-1" id="SwO-m5Rw8wf9U1Pacy3l">
    <mxGraphModel dx="1750" dy="928" grid="1" gridSize="10" guides="1" tooltips="1" connect="1" arrows="1" fold="1" page="1" pageScale="1" pageWidth="827" pageHeight="1169" math="0" shadow="0">
      <root>
        <mxCell id="0" />
        <mxCell id="1" parent="0" />
        <mxCell id="01_1tB0qzMDV8nujFLj0-36" style="rounded=0;orthogonalLoop=1;jettySize=auto;html=1;entryX=0;entryY=0.5;entryDx=0;entryDy=0;strokeWidth=2;dashed=1;dashPattern=8 8;" edge="1" parent="1" source="01_1tB0qzMDV8nujFLj0-2" target="01_1tB0qzMDV8nujFLj0-32">
          <mxGeometry relative="1" as="geometry" />
        </mxCell>
        <mxCell id="01_1tB0qzMDV8nujFLj0-2" value="Admin" style="shape=umlActor;verticalLabelPosition=bottom;verticalAlign=top;html=1;outlineConnect=0;" vertex="1" parent="1">
          <mxGeometry x="205" y="648.34" width="70" height="110" as="geometry" />
        </mxCell>
        <mxCell id="01_1tB0qzMDV8nujFLj0-23" style="rounded=0;orthogonalLoop=1;jettySize=auto;html=1;dashed=1;dashPattern=8 8;strokeWidth=2;" edge="1" parent="1" source="01_1tB0qzMDV8nujFLj0-15" target="01_1tB0qzMDV8nujFLj0-17">
          <mxGeometry relative="1" as="geometry" />
        </mxCell>
        <mxCell id="01_1tB0qzMDV8nujFLj0-34" style="rounded=0;orthogonalLoop=1;jettySize=auto;html=1;entryX=1;entryY=0.5;entryDx=0;entryDy=0;dashed=1;dashPattern=8 8;strokeWidth=2;" edge="1" parent="1" source="01_1tB0qzMDV8nujFLj0-15" target="01_1tB0qzMDV8nujFLj0-16">
          <mxGeometry relative="1" as="geometry" />
        </mxCell>
        <mxCell id="01_1tB0qzMDV8nujFLj0-35" style="rounded=0;orthogonalLoop=1;jettySize=auto;html=1;entryX=1;entryY=0.5;entryDx=0;entryDy=0;strokeWidth=2;dashed=1;dashPattern=8 8;" edge="1" parent="1" source="01_1tB0qzMDV8nujFLj0-15" target="01_1tB0qzMDV8nujFLj0-18">
          <mxGeometry relative="1" as="geometry" />
        </mxCell>
        <mxCell id="01_1tB0qzMDV8nujFLj0-15" value="Nhân viên" style="shape=umlActor;verticalLabelPosition=bottom;verticalAlign=top;html=1;outlineConnect=0;" vertex="1" parent="1">
          <mxGeometry x="1260" y="638.34" width="50" height="80" as="geometry" />
        </mxCell>
        <mxCell id="01_1tB0qzMDV8nujFLj0-72" style="rounded=0;orthogonalLoop=1;jettySize=auto;html=1;entryX=1;entryY=1;entryDx=0;entryDy=0;dashed=1;dashPattern=8 8;strokeWidth=2;" edge="1" parent="1" source="01_1tB0qzMDV8nujFLj0-16" target="01_1tB0qzMDV8nujFLj0-5">
          <mxGeometry relative="1" as="geometry" />
        </mxCell>
        <mxCell id="01_1tB0qzMDV8nujFLj0-16" value="Quản lý người dùng&lt;span style=&quot;color: rgba(0, 0, 0, 0); font-family: monospace; font-size: 0px; text-align: start; text-wrap-mode: nowrap;&quot;&gt;%3CmxGraphModel%3E%3Croot%3E%3CmxCell%20id%3D%220%22%2F%3E%3CmxCell%20id%3D%221%22%20parent%3D%220%22%2F%3E%3CmxCell%20id%3D%222%22%20value%3D%22%C4%90%C4%83ng%20nh%E1%BA%ADp%22%20style%3D%22ellipse%3BwhiteSpace%3Dwrap%3Bhtml%3D1%3B%22%20vertex%3D%221%22%20parent%3D%221%22%3E%3CmxGeometry%20x%3D%22385%22%20y%3D%22331.66%22%20width%3D%22100%22%20height%3D%2266.67%22%20as%3D%22geometry%22%2F%3E%3C%2FmxCell%3E%3C%2Froot%3E%3C%2FmxGraphModel%3E&lt;/span&gt;&lt;span style=&quot;color: rgba(0, 0, 0, 0); font-family: monospace; font-size: 0px; text-align: start; text-wrap-mode: nowrap;&quot;&gt;%3CmxGraphModel%3E%3Croot%3E%3CmxCell%20id%3D%220%22%2F%3E%3CmxCell%20id%3D%221%22%20parent%3D%220%22%2F%3E%3CmxCell%20id%3D%222%22%20value%3D%22%C4%90%C4%83ng%20nh%E1%BA%ADp%22%20style%3D%22ellipse%3BwhiteSpace%3Dwrap%3Bhtml%3D1%3B%22%20vertex%3D%221%22%20parent%3D%221%22%3E%3CmxGeometry%20x%3D%22385%22%20y%3D%22331.66%22%20width%3D%22100%22%20height%3D%2266.67%22%20as%3D%22geometry%22%2F%3E%3C%2FmxCell%3E%3C%2Froot%3E%3C%2FmxGraphModel%3E&lt;/span&gt;" style="ellipse;whiteSpace=wrap;html=1;" vertex="1" parent="1">
          <mxGeometry x="930" y="638.3400000000001" width="100" height="66.67" as="geometry" />
        </mxCell>
        <mxCell id="01_1tB0qzMDV8nujFLj0-68" style="rounded=0;orthogonalLoop=1;jettySize=auto;html=1;entryX=1;entryY=0.5;entryDx=0;entryDy=0;strokeWidth=2;dashed=1;dashPattern=8 8;" edge="1" parent="1" source="01_1tB0qzMDV8nujFLj0-17" target="01_1tB0qzMDV8nujFLj0-5">
          <mxGeometry relative="1" as="geometry" />
        </mxCell>
        <mxCell id="01_1tB0qzMDV8nujFLj0-17" value="Quản lý sản phẩm" style="ellipse;whiteSpace=wrap;html=1;" vertex="1" parent="1">
          <mxGeometry x="930" y="523.3299999999999" width="100" height="76.67" as="geometry" />
        </mxCell>
        <mxCell id="01_1tB0qzMDV8nujFLj0-18" value="Quản lý danh mục&amp;nbsp;" style="ellipse;whiteSpace=wrap;html=1;" vertex="1" parent="1">
          <mxGeometry x="930" y="740" width="100" height="66.67" as="geometry" />
        </mxCell>
        <mxCell id="01_1tB0qzMDV8nujFLj0-39" style="rounded=0;orthogonalLoop=1;jettySize=auto;html=1;entryX=0;entryY=0.5;entryDx=0;entryDy=0;dashed=1;dashPattern=8 8;strokeWidth=2;" edge="1" parent="1" source="01_1tB0qzMDV8nujFLj0-19" target="01_1tB0qzMDV8nujFLj0-38">
          <mxGeometry relative="1" as="geometry" />
        </mxCell>
        <mxCell id="01_1tB0qzMDV8nujFLj0-78" style="rounded=0;orthogonalLoop=1;jettySize=auto;html=1;entryX=0;entryY=0.5;entryDx=0;entryDy=0;dashed=1;dashPattern=8 8;strokeWidth=2;" edge="1" parent="1" source="01_1tB0qzMDV8nujFLj0-19" target="01_1tB0qzMDV8nujFLj0-77">
          <mxGeometry relative="1" as="geometry" />
        </mxCell>
        <mxCell id="01_1tB0qzMDV8nujFLj0-79" style="rounded=0;orthogonalLoop=1;jettySize=auto;html=1;entryX=0;entryY=0.5;entryDx=0;entryDy=0;dashed=1;dashPattern=8 8;strokeWidth=2;" edge="1" parent="1" source="01_1tB0qzMDV8nujFLj0-19" target="01_1tB0qzMDV8nujFLj0-28">
          <mxGeometry relative="1" as="geometry" />
        </mxCell>
        <mxCell id="01_1tB0qzMDV8nujFLj0-19" value="Khách hàng" style="shape=umlActor;verticalLabelPosition=bottom;verticalAlign=top;html=1;outlineConnect=0;" vertex="1" parent="1">
          <mxGeometry x="210" y="170" width="60" height="120" as="geometry" />
        </mxCell>
        <mxCell id="01_1tB0qzMDV8nujFLj0-29" style="rounded=0;orthogonalLoop=1;jettySize=auto;html=1;dashed=1;dashPattern=8 8;strokeWidth=2;" edge="1" parent="1" source="01_1tB0qzMDV8nujFLj0-26" target="01_1tB0qzMDV8nujFLj0-28">
          <mxGeometry relative="1" as="geometry" />
        </mxCell>
        <mxCell id="01_1tB0qzMDV8nujFLj0-31" style="rounded=0;orthogonalLoop=1;jettySize=auto;html=1;entryX=1;entryY=0.5;entryDx=0;entryDy=0;dashed=1;dashPattern=8 8;strokeWidth=2;" edge="1" parent="1" source="01_1tB0qzMDV8nujFLj0-26" target="01_1tB0qzMDV8nujFLj0-30">
          <mxGeometry relative="1" as="geometry" />
        </mxCell>
        <mxCell id="01_1tB0qzMDV8nujFLj0-26" value="Khách hàng viếng thăm" style="shape=umlActor;verticalLabelPosition=bottom;verticalAlign=top;html=1;outlineConnect=0;" vertex="1" parent="1">
          <mxGeometry x="1240" y="170" width="50" height="100" as="geometry" />
        </mxCell>
        <mxCell id="01_1tB0qzMDV8nujFLj0-45" value="&lt;font style=&quot;font-size: 15px;&quot;&gt;&amp;lt;&amp;lt;Extends&amp;gt;&amp;gt;&lt;/font&gt;" style="text;html=1;align=center;verticalAlign=middle;whiteSpace=wrap;rounded=0;rotation=30;" vertex="1" parent="1">
          <mxGeometry x="535" y="499.33000000000004" width="60" height="30" as="geometry" />
        </mxCell>
        <mxCell id="01_1tB0qzMDV8nujFLj0-51" value="" style="swimlane;startSize=0;" vertex="1" parent="1">
          <mxGeometry x="310" y="80" width="810" height="850" as="geometry" />
        </mxCell>
        <mxCell id="01_1tB0qzMDV8nujFLj0-5" value="Đăng nhập" style="ellipse;whiteSpace=wrap;html=1;" vertex="1" parent="01_1tB0qzMDV8nujFLj0-51">
          <mxGeometry x="330" y="314.00000000000006" width="150" height="100" as="geometry" />
        </mxCell>
        <mxCell id="01_1tB0qzMDV8nujFLj0-53" value="&lt;font style=&quot;font-size: 15px;&quot;&gt;&amp;lt;&amp;lt;Extends&amp;gt;&amp;gt;&lt;/font&gt;" style="text;html=1;align=center;verticalAlign=middle;whiteSpace=wrap;rounded=0;rotation=45;" vertex="1" parent="01_1tB0qzMDV8nujFLj0-51">
          <mxGeometry x="290" y="514" width="60" height="30" as="geometry" />
        </mxCell>
        <mxCell id="01_1tB0qzMDV8nujFLj0-52" style="rounded=0;orthogonalLoop=1;jettySize=auto;html=1;entryX=0;entryY=1;entryDx=0;entryDy=0;dashed=1;dashPattern=8 8;strokeWidth=2;exitX=1;exitY=0;exitDx=0;exitDy=0;" edge="1" parent="01_1tB0qzMDV8nujFLj0-51" source="01_1tB0qzMDV8nujFLj0-7" target="01_1tB0qzMDV8nujFLj0-5">
          <mxGeometry relative="1" as="geometry">
            <mxPoint x="280" y="570" as="sourcePoint" />
            <mxPoint x="416.40999999999997" y="483.3299999999999" as="targetPoint" />
          </mxGeometry>
        </mxCell>
        <mxCell id="01_1tB0qzMDV8nujFLj0-59" value="&lt;font style=&quot;font-size: 15px;&quot;&gt;&amp;lt;&amp;lt;Extends&amp;gt;&amp;gt;&lt;/font&gt;" style="text;html=1;align=center;verticalAlign=middle;whiteSpace=wrap;rounded=0;rotation=0;" vertex="1" parent="01_1tB0qzMDV8nujFLj0-51">
          <mxGeometry x="303" y="600" width="60" height="30" as="geometry" />
        </mxCell>
        <mxCell id="01_1tB0qzMDV8nujFLj0-66" style="edgeStyle=orthogonalEdgeStyle;rounded=0;orthogonalLoop=1;jettySize=auto;html=1;entryX=0.5;entryY=1;entryDx=0;entryDy=0;dashed=1;dashPattern=8 8;strokeWidth=2;" edge="1" parent="01_1tB0qzMDV8nujFLj0-51" source="01_1tB0qzMDV8nujFLj0-9" target="01_1tB0qzMDV8nujFLj0-5">
          <mxGeometry relative="1" as="geometry" />
        </mxCell>
        <mxCell id="01_1tB0qzMDV8nujFLj0-9" value="Quản lý quyền" style="ellipse;whiteSpace=wrap;html=1;" vertex="1" parent="01_1tB0qzMDV8nujFLj0-51">
          <mxGeometry x="120" y="770" width="100" height="66.67" as="geometry" />
        </mxCell>
        <mxCell id="01_1tB0qzMDV8nujFLj0-67" value="&lt;font style=&quot;font-size: 15px;&quot;&gt;&amp;lt;&amp;lt;Extends&amp;gt;&amp;gt;&lt;/font&gt;" style="text;html=1;align=center;verticalAlign=middle;whiteSpace=wrap;rounded=0;rotation=0;" vertex="1" parent="01_1tB0qzMDV8nujFLj0-51">
          <mxGeometry x="380" y="695" width="60" height="30" as="geometry" />
        </mxCell>
        <mxCell id="01_1tB0qzMDV8nujFLj0-69" value="&lt;font style=&quot;font-size: 15px;&quot;&gt;&amp;lt;&amp;lt;Extends&amp;gt;&amp;gt;&lt;/font&gt;" style="text;html=1;align=center;verticalAlign=middle;whiteSpace=wrap;rounded=0;rotation=-65;" vertex="1" parent="01_1tB0qzMDV8nujFLj0-51">
          <mxGeometry x="541" y="414" width="60" height="30" as="geometry" />
        </mxCell>
        <mxCell id="01_1tB0qzMDV8nujFLj0-75" value="&lt;font style=&quot;font-size: 15px;&quot;&gt;&amp;lt;&amp;lt;Extends&amp;gt;&amp;gt;&lt;/font&gt;" style="text;html=1;align=center;verticalAlign=middle;whiteSpace=wrap;rounded=0;rotation=-30;" vertex="1" parent="01_1tB0qzMDV8nujFLj0-51">
          <mxGeometry x="546" y="583" width="60" height="30" as="geometry" />
        </mxCell>
        <mxCell id="01_1tB0qzMDV8nujFLj0-32" value="Quản lý hệ thống" style="ellipse;whiteSpace=wrap;html=1;" vertex="1" parent="01_1tB0qzMDV8nujFLj0-51">
          <mxGeometry x="20" y="586.68" width="110" height="73.33" as="geometry" />
        </mxCell>
        <mxCell id="01_1tB0qzMDV8nujFLj0-43" style="rounded=0;orthogonalLoop=1;jettySize=auto;html=1;entryX=0;entryY=0.5;entryDx=0;entryDy=0;elbow=vertical;dashed=1;dashPattern=8 8;strokeWidth=2;" edge="1" parent="01_1tB0qzMDV8nujFLj0-51" source="01_1tB0qzMDV8nujFLj0-32" target="01_1tB0qzMDV8nujFLj0-9">
          <mxGeometry relative="1" as="geometry" />
        </mxCell>
        <mxCell id="01_1tB0qzMDV8nujFLj0-6" value="Quản lý người dùng&lt;span style=&quot;color: rgba(0, 0, 0, 0); font-family: monospace; font-size: 0px; text-align: start; text-wrap-mode: nowrap;&quot;&gt;%3CmxGraphModel%3E%3Croot%3E%3CmxCell%20id%3D%220%22%2F%3E%3CmxCell%20id%3D%221%22%20parent%3D%220%22%2F%3E%3CmxCell%20id%3D%222%22%20value%3D%22%C4%90%C4%83ng%20nh%E1%BA%ADp%22%20style%3D%22ellipse%3BwhiteSpace%3Dwrap%3Bhtml%3D1%3B%22%20vertex%3D%221%22%20parent%3D%221%22%3E%3CmxGeometry%20x%3D%22385%22%20y%3D%22331.66%22%20width%3D%22100%22%20height%3D%2266.67%22%20as%3D%22geometry%22%2F%3E%3C%2FmxCell%3E%3C%2Froot%3E%3C%2FmxGraphModel%3E&lt;/span&gt;&lt;span style=&quot;color: rgba(0, 0, 0, 0); font-family: monospace; font-size: 0px; text-align: start; text-wrap-mode: nowrap;&quot;&gt;%3CmxGraphModel%3E%3Croot%3E%3CmxCell%20id%3D%220%22%2F%3E%3CmxCell%20id%3D%221%22%20parent%3D%220%22%2F%3E%3CmxCell%20id%3D%222%22%20value%3D%22%C4%90%C4%83ng%20nh%E1%BA%ADp%22%20style%3D%22ellipse%3BwhiteSpace%3Dwrap%3Bhtml%3D1%3B%22%20vertex%3D%221%22%20parent%3D%221%22%3E%3CmxGeometry%20x%3D%22385%22%20y%3D%22331.66%22%20width%3D%22100%22%20height%3D%2266.67%22%20as%3D%22geometry%22%2F%3E%3C%2FmxCell%3E%3C%2Froot%3E%3C%2FmxGraphModel%3E&lt;/span&gt;" style="ellipse;whiteSpace=wrap;html=1;" vertex="1" parent="01_1tB0qzMDV8nujFLj0-51">
          <mxGeometry x="130" y="471.0000000000001" width="100" height="66.67" as="geometry" />
        </mxCell>
        <mxCell id="01_1tB0qzMDV8nujFLj0-40" style="rounded=0;orthogonalLoop=1;jettySize=auto;html=1;entryX=0;entryY=0.5;entryDx=0;entryDy=0;dashed=1;dashPattern=8 8;strokeWidth=2;" edge="1" parent="01_1tB0qzMDV8nujFLj0-51" source="01_1tB0qzMDV8nujFLj0-32" target="01_1tB0qzMDV8nujFLj0-6">
          <mxGeometry relative="1" as="geometry" />
        </mxCell>
        <mxCell id="01_1tB0qzMDV8nujFLj0-44" style="rounded=0;orthogonalLoop=1;jettySize=auto;html=1;entryX=0;entryY=0.5;entryDx=0;entryDy=0;dashed=1;dashPattern=8 8;strokeWidth=2;" edge="1" parent="01_1tB0qzMDV8nujFLj0-51">
          <mxGeometry relative="1" as="geometry">
            <mxPoint x="208.06287184639177" y="477.2096529433675" as="sourcePoint" />
            <mxPoint x="329" y="364" as="targetPoint" />
          </mxGeometry>
        </mxCell>
        <mxCell id="01_1tB0qzMDV8nujFLj0-7" value="Quản lý sản phẩm" style="ellipse;whiteSpace=wrap;html=1;" vertex="1" parent="01_1tB0qzMDV8nujFLj0-51">
          <mxGeometry x="140" y="574" width="100" height="70" as="geometry" />
        </mxCell>
        <mxCell id="01_1tB0qzMDV8nujFLj0-41" style="rounded=0;orthogonalLoop=1;jettySize=auto;html=1;entryX=0;entryY=0.5;entryDx=0;entryDy=0;strokeWidth=2;dashed=1;dashPattern=8 8;" edge="1" parent="01_1tB0qzMDV8nujFLj0-51" source="01_1tB0qzMDV8nujFLj0-32" target="01_1tB0qzMDV8nujFLj0-7">
          <mxGeometry relative="1" as="geometry" />
        </mxCell>
        <mxCell id="01_1tB0qzMDV8nujFLj0-8" value="Quản lý danh mục&amp;nbsp;" style="ellipse;whiteSpace=wrap;html=1;" vertex="1" parent="01_1tB0qzMDV8nujFLj0-51">
          <mxGeometry x="130" y="663.33" width="100" height="66.67" as="geometry" />
        </mxCell>
        <mxCell id="01_1tB0qzMDV8nujFLj0-42" style="rounded=0;orthogonalLoop=1;jettySize=auto;html=1;entryX=0;entryY=0.5;entryDx=0;entryDy=0;dashed=1;dashPattern=8 8;strokeWidth=2;" edge="1" parent="01_1tB0qzMDV8nujFLj0-51" source="01_1tB0qzMDV8nujFLj0-32" target="01_1tB0qzMDV8nujFLj0-8">
          <mxGeometry relative="1" as="geometry" />
        </mxCell>
        <mxCell id="01_1tB0qzMDV8nujFLj0-58" style="edgeStyle=orthogonalEdgeStyle;rounded=0;orthogonalLoop=1;jettySize=auto;html=1;entryX=0.231;entryY=0.907;entryDx=0;entryDy=0;entryPerimeter=0;dashed=1;dashPattern=8 8;strokeWidth=2;" edge="1" parent="01_1tB0qzMDV8nujFLj0-51" source="01_1tB0qzMDV8nujFLj0-8" target="01_1tB0qzMDV8nujFLj0-5">
          <mxGeometry relative="1" as="geometry" />
        </mxCell>
        <mxCell id="01_1tB0qzMDV8nujFLj0-86" style="edgeStyle=orthogonalEdgeStyle;rounded=0;orthogonalLoop=1;jettySize=auto;html=1;entryX=0;entryY=0;entryDx=0;entryDy=0;dashed=1;dashPattern=8 8;strokeWidth=2;" edge="1" parent="01_1tB0qzMDV8nujFLj0-51" source="01_1tB0qzMDV8nujFLj0-38" target="01_1tB0qzMDV8nujFLj0-5">
          <mxGeometry relative="1" as="geometry" />
        </mxCell>
        <mxCell id="01_1tB0qzMDV8nujFLj0-38" value="&lt;font style=&quot;font-size: 14px;&quot;&gt;Đặt hàng&lt;/font&gt;" style="ellipse;whiteSpace=wrap;html=1;" vertex="1" parent="01_1tB0qzMDV8nujFLj0-51">
          <mxGeometry x="170" y="118.33" width="100" height="63.33" as="geometry" />
        </mxCell>
        <mxCell id="01_1tB0qzMDV8nujFLj0-84" style="edgeStyle=orthogonalEdgeStyle;rounded=0;orthogonalLoop=1;jettySize=auto;html=1;entryX=1;entryY=0;entryDx=0;entryDy=0;dashed=1;dashPattern=8 8;strokeWidth=2;" edge="1" parent="01_1tB0qzMDV8nujFLj0-51" source="01_1tB0qzMDV8nujFLj0-30" target="01_1tB0qzMDV8nujFLj0-5">
          <mxGeometry relative="1" as="geometry" />
        </mxCell>
        <mxCell id="01_1tB0qzMDV8nujFLj0-30" value="&lt;font style=&quot;font-size: 14px;&quot;&gt;Tìm kiếm sản phẩm&lt;/font&gt;" style="ellipse;whiteSpace=wrap;html=1;" vertex="1" parent="01_1tB0qzMDV8nujFLj0-51">
          <mxGeometry x="590" y="240.00000000000006" width="100" height="66.67" as="geometry" />
        </mxCell>
        <mxCell id="01_1tB0qzMDV8nujFLj0-81" style="rounded=0;orthogonalLoop=1;jettySize=auto;html=1;entryX=0.5;entryY=0;entryDx=0;entryDy=0;dashed=1;dashPattern=8 8;strokeWidth=2;" edge="1" parent="01_1tB0qzMDV8nujFLj0-51" source="01_1tB0qzMDV8nujFLj0-28" target="01_1tB0qzMDV8nujFLj0-5">
          <mxGeometry relative="1" as="geometry" />
        </mxCell>
        <mxCell id="01_1tB0qzMDV8nujFLj0-28" value="&lt;font style=&quot;font-size: 14px;&quot;&gt;Xem sản phẩm&lt;/font&gt;" style="ellipse;whiteSpace=wrap;html=1;" vertex="1" parent="01_1tB0qzMDV8nujFLj0-51">
          <mxGeometry x="355" y="23.330000000000055" width="100" height="66.67" as="geometry" />
        </mxCell>
        <mxCell id="01_1tB0qzMDV8nujFLj0-77" value="&lt;font style=&quot;font-size: 14px;&quot;&gt;Thanh toán&lt;/font&gt;" style="ellipse;whiteSpace=wrap;html=1;" vertex="1" parent="01_1tB0qzMDV8nujFLj0-51">
          <mxGeometry x="130" y="210" width="100" height="63.33" as="geometry" />
        </mxCell>
        <mxCell id="01_1tB0qzMDV8nujFLj0-82" value="&lt;font style=&quot;font-size: 15px;&quot;&gt;&amp;lt;&amp;lt;Extends&amp;gt;&amp;gt;&lt;/font&gt;" style="text;html=1;align=center;verticalAlign=middle;whiteSpace=wrap;rounded=0;rotation=0;" vertex="1" parent="01_1tB0qzMDV8nujFLj0-51">
          <mxGeometry x="382" y="163" width="60" height="30" as="geometry" />
        </mxCell>
        <mxCell id="01_1tB0qzMDV8nujFLj0-85" value="&lt;font style=&quot;font-size: 15px;&quot;&gt;&amp;lt;&amp;lt;Extends&amp;gt;&amp;gt;&lt;/font&gt;" style="text;html=1;align=center;verticalAlign=middle;whiteSpace=wrap;rounded=0;rotation=0;" vertex="1" parent="01_1tB0qzMDV8nujFLj0-51">
          <mxGeometry x="490" y="240" width="60" height="30" as="geometry" />
        </mxCell>
        <mxCell id="01_1tB0qzMDV8nujFLj0-87" value="&lt;font style=&quot;font-size: 15px;&quot;&gt;&amp;lt;&amp;lt;Extends&amp;gt;&amp;gt;&lt;/font&gt;" style="text;html=1;align=center;verticalAlign=middle;whiteSpace=wrap;rounded=0;rotation=0;" vertex="1" parent="01_1tB0qzMDV8nujFLj0-51">
          <mxGeometry x="280" y="151.66" width="60" height="30" as="geometry" />
        </mxCell>
        <mxCell id="01_1tB0qzMDV8nujFLj0-88" style="rounded=0;orthogonalLoop=1;jettySize=auto;html=1;entryX=0.031;entryY=0.36;entryDx=0;entryDy=0;entryPerimeter=0;dashed=1;dashPattern=8 8;strokeWidth=2;" edge="1" parent="01_1tB0qzMDV8nujFLj0-51" source="01_1tB0qzMDV8nujFLj0-77" target="01_1tB0qzMDV8nujFLj0-5">
          <mxGeometry relative="1" as="geometry" />
        </mxCell>
        <mxCell id="01_1tB0qzMDV8nujFLj0-90" value="&lt;font style=&quot;font-size: 15px;&quot;&gt;&amp;lt;&amp;lt;Extends&amp;gt;&amp;gt;&lt;/font&gt;" style="text;html=1;align=center;verticalAlign=middle;whiteSpace=wrap;rounded=0;rotation=-50;" vertex="1" parent="01_1tB0qzMDV8nujFLj0-51">
          <mxGeometry x="230" y="281.67" width="60" height="30" as="geometry" />
        </mxCell>
        <mxCell id="01_1tB0qzMDV8nujFLj0-73" value="&lt;font style=&quot;font-size: 15px;&quot;&gt;&amp;lt;&amp;lt;Extends&amp;gt;&amp;gt;&lt;/font&gt;" style="text;html=1;align=center;verticalAlign=middle;whiteSpace=wrap;rounded=0;rotation=-65;" vertex="1" parent="1">
          <mxGeometry x="860" y="562" width="60" height="30" as="geometry" />
        </mxCell>
        <mxCell id="01_1tB0qzMDV8nujFLj0-74" style="rounded=0;orthogonalLoop=1;jettySize=auto;html=1;entryX=0.649;entryY=1.04;entryDx=0;entryDy=0;entryPerimeter=0;dashed=1;dashPattern=8 8;strokeWidth=2;" edge="1" parent="1" source="01_1tB0qzMDV8nujFLj0-18" target="01_1tB0qzMDV8nujFLj0-5">
          <mxGeometry relative="1" as="geometry" />
        </mxCell>
      </root>
    </mxGraphModel>
  </diagram>
</mxfile>
